<svg t="1680055083651" class="icon" viewBox="0 0 1024 1024" version="1.1" xmlns="http://www.w3.org/2000/svg" p-id="2997" width="200" height="200">
	<path d="M586.4 781H437.2c-20.6 0-37.3-16.7-37.3-37.3s16.7-37.3 37.3-37.3h149.2c164.5 0 298.4-125.4 298.4-279.7C884.8 272.5 751 147 586.4 147H437.2c-164.5 0-298.4 125.5-298.4 279.7 0 52.2 15.5 103.1 44.7 147.2 11.4 17.2 6.6 40.3-10.5 51.7-17.3 11.4-40.4 6.7-51.7-10.5-37.3-56.4-57-121.5-57-188.4 0-195.3 167.3-354.3 373-354.3h149.2c205.6 0 373 159 373 354.3C959.3 622.1 792 781 586.4 781" fill="#8a8a8a" p-id="2998">
	</path>
	<path d="M213.5 952.1c-9.6 0-19.4-1.9-28.6-5.7-28-11.6-46-38.6-46-68.9 0-3.4 0.5-6.8 1.4-10l37.3-133.7c5.6-19.9 26.2-31.5 45.9-25.9 19.9 5.5 31.4 26.1 25.9 45.9l-34 121.9c0.3-0.3 0.6-0.5 0.9-0.8l197.4-160.1c6.6-5.4 14.9-8.3 23.5-8.3h37.3c20.6 0 37.3 16.7 37.3 37.3s-16.7 37.3-37.3 37.3h-24.1L264.6 931.8c-14.2 13.3-32.5 20.3-51.1 20.3M549.1 445.4c0 20.6-16.7 37.3-37.3 37.3-20.6 0-37.3-16.7-37.3-37.3 0-20.6 16.7-37.3 37.3-37.3 20.6 0 37.3 16.7 37.3 37.3M735.6 445.4c0 20.6-16.7 37.3-37.3 37.3S661 466 661 445.4c0-20.6 16.7-37.3 37.3-37.3 20.5 0 37.3 16.7 37.3 37.3M362.6 445.4c0 20.6-16.7 37.3-37.3 37.3-20.6 0-37.3-16.7-37.3-37.3 0-20.6 16.7-37.3 37.3-37.3s37.3 16.7 37.3 37.3" fill="#8a8a8a" p-id="2999">
	</path>
</svg>
