<?xml version="1.0" standalone="no"?>
<!DOCTYPE svg PUBLIC "-//W3C//DTD SVG 1.1//EN" "http://www.w3.org/Graphics/SVG/1.1/DTD/svg11.dtd">
<svg t="1678267955845" class="icon" viewBox="0 0 1024 1024" version="1.1" xmlns="http://www.w3.org/2000/svg" p-id="5462" xmlns:xlink="http://www.w3.org/1999/xlink" width="200" height="200">
	<path d="M449.92 250.666667h-131.178667a68.074667 68.074667 0 0 0-68.074666 68.074666V705.28a68.074667 68.074667 0 0 0 68.074666 68.074667H705.28a68.074667 68.074667 0 0 0 68.074667-68.074667v-131.2a37.333333 37.333333 0 0 1 74.666666 0v131.2a142.741333 142.741333 0 0 1-142.741333 142.741333H318.72a142.741333 142.741333 0 0 1-142.741333-142.741333V318.72a142.741333 142.741333 0 0 1 142.741333-142.741333h131.2a37.333333 37.333333 0 0 1 0 74.666666z" fill="#1296db" p-id="5463">
	</path>
	<path d="M755.498667 240.362667l49.130666 49.002666a85.333333 85.333333 0 0 1 0 120.810667l-38.570666 38.506667-242.602667 242.026666a42.666667 42.666667 0 0 1-29.738667 12.458667l-86.976 0.789333a64 64 0 0 1-64.448-59.626666l-0.149333-3.776-0.810667-89.173334a42.666667 42.666667 0 0 1 12.544-30.592l114.410667-114.176 166.677333-166.250666a85.333333 85.333333 0 0 1 120.533334 0zM480 628.629333L751.893333 357.333333a10.666667 10.666667 0 0 0 0-15.104l-49.130666-49.024a10.666667 10.666667 0 0 0-15.061334 0l-166.656 166.272-104.917333 104.661334 0.597333 65.066666 63.253334-0.597333z" fill="#1296db" p-id="5464">
	</path>
</svg>
