<svg t="1661825952517" class="icon" viewBox="0 0 1024 1024" version="1.1" xmlns="http://www.w3.org/2000/svg" p-id="2252" width="200" height="200">
	<path d="M148.859845 404.057356c-5.11465 15.34395 0 20.4586 0 76.719751 0 15.34395-61.375801 76.719751-86.949052 143.210202-25.57325 66.490451-25.57325 138.095552 10.2293 163.668803 35.802551 30.6879 71.605101-92.063701 76.719752-71.605101 0 5.11465 5.11465 15.34395 5.11465 25.57325 15.34395 35.802551 35.802551 71.605101 61.375801 102.293002 5.11465 5.11465-35.802551 20.4586-61.375801 61.3758-25.57325 40.917201 10.2293 117.636952 132.980902 117.636952 158.554152 0 199.471353-56.261151 199.471353-56.261151h51.1465c10.2293 0 86.949051 66.490451 194.356703 56.261151 184.127403-20.4586 158.554152-81.834401 143.210202-122.751602-15.34395-40.917201-66.490451-61.375801-66.490451-61.375801 46.031851-51.146501 51.146501-76.719751 66.490451-122.751601 5.11465-20.4586 51.146501 102.293002 81.834402 71.605101 15.34395-10.2293 40.917201-61.375801 15.34395-163.668803s-81.834401-127.866252-81.834401-143.210202V404.057356c-10.2293-35.802551-30.6879-25.57325-30.687901-35.802551 0-204.586003-153.439502-368.254805-342.681555-368.254805S174.433095 163.668802 174.433095 368.254805c0 15.34395-15.34395 5.11465-25.57325 35.802551z m0 0" fill="#4A9AFD" p-id="2253">
	</path>
</svg>
