<?xml version="1.0" standalone="no"?>
<!DOCTYPE svg PUBLIC "-//W3C//DTD SVG 1.1//EN" "http://www.w3.org/Graphics/SVG/1.1/DTD/svg11.dtd">
<svg t="1678260582059" class="icon" viewBox="0 0 1024 1024" version="1.1" xmlns="http://www.w3.org/2000/svg" p-id="3627" xmlns:xlink="http://www.w3.org/1999/xlink" width="200" height="200">
	<path d="M987.504 400.816c-7.527-39.879-37.67-65.878-61.633-80.666-5.856-3.615-16.786-8.043-28.811-12.442-21.61-7.906-44.335 8.527-43.718 31.53l0.019 0.673c0.314 11.846 6.038 25.44 17.607 28.012 19.185 4.265 53.505 29.99 56.203 44.28 4.917 26.052-18.006 59.68-62.386 93.087-0.836-45.215-10.11-89.101-27.638-130.54-17.76-41.99-43.177-79.693-75.548-112.063s-70.075-57.79-112.064-75.549c-43.487-18.394-89.665-27.72-137.25-27.72s-93.762 9.326-137.25 27.72c-41.989 17.76-79.692 43.179-112.063 75.549s-57.789 70.074-75.548 112.062c-18.394 43.489-27.72 89.666-27.72 137.251 0 40.616 6.819 80.2 20.246 117.969-47.982-14.924-77.93-36.671-82.55-61.15-3.294-17.447 5.902-38.291 25.66-60.19a30.336 30.336 0 0 0 7.803-19.561l0.02-0.812c0.703-28.276-34.09-42.067-53.05-21.077-4.623 5.12-8.884 10.27-12.775 15.445-16.924 22.506-35.517 57.704-27.99 97.581 7.526 39.878 37.67 65.877 61.632 80.666 29.514 18.215 68.603 31.886 116.181 40.631 13.727 21.513 29.798 41.514 48.092 59.81 32.37 32.371 70.074 57.79 112.063 75.549 43.488 18.394 89.666 27.72 137.25 27.72s93.763-9.326 137.25-27.72c41.989-17.76 79.692-43.178 112.064-75.549s57.789-70.075 75.548-112.063a349.8 349.8 0 0 0 20.407-65.459 567.144 567.144 0 0 0 8.518-5.167c41.148-25.5 72.587-52.491 93.441-80.226 16.923-22.505 35.516-57.704 27.99-97.581z m-681.117-94.714c54.998-54.998 128.12-85.286 205.897-85.286s150.901 30.289 205.898 85.286c54.997 54.997 85.286 128.12 85.286 205.897a296.12 296.12 0 0 1-1.838 32.806C730.282 582.68 638.602 613.251 539 632.05c-103.49 19.533-203.652 24.116-285.688 13.339-21.046-40.75-32.211-86.208-32.211-133.39 0-77.777 30.288-150.9 85.286-205.897z m411.795 411.795c-54.997 54.998-128.12 85.287-205.898 85.287s-150.9-30.289-205.897-85.287a300.018 300.018 0 0 1-6.45-6.678 857.39 857.39 0 0 0 46.125 1.22c64.176 0 133.699-6.724 204.325-20.055 84.32-15.914 163.715-40.017 231.456-69.878-14.452 35.258-35.905 67.635-63.661 95.391z m-17.978-217.153a29.875 29.875 0 1 0 59.751 0 29.875 29.875 0 1 0-59.75 0z m-91.562-37.899a14.937 14.937 0 1 0 29.874 0 14.937 14.937 0 1 0-29.874 0z" p-id="3628" fill="#1296db">
	</path>
</svg>
