<svg t="1661777003135" class="icon" viewBox="0 0 1024 1024" version="1.1" xmlns="http://www.w3.org/2000/svg" p-id="4227" width="200" height="200"><path d="M515.4816 453.7856c35.2256 0 63.8464-28.6208 63.8464-63.8464s-28.6208-63.8464-63.8464-63.8464-63.8464 28.672-63.8464 63.8464 28.6208 63.8464 63.8464 63.8464zM534.5792 528.9472h-38.2464c-92.1088 0-167.0144 74.9056-167.0144 167.0144v5.8368h372.2752v-5.8368c0-92.0576-74.9056-167.0144-167.0144-167.0144z m18.9952 126.208l-31.232 30.8736c-3.7888 3.7376-9.9328 3.7376-13.7216 0l-30.3104-30.0544a9.728 9.728 0 0 1-2.048-10.8544l27.2896-61.952a21.0432 21.0432 0 1 1 32.768-17.4592c0 7.5264-3.9936 14.1312-9.984 17.8176l29.184 60.5184c1.792 3.7376 1.024 8.192-1.9456 11.1104z" fill="#6893DF" p-id="4228"></path><path d="M785.2544 109.4144H240.9472c-73.0624 0-132.5056 59.4432-132.5056 132.5056v544.3072c0 73.0624 59.4432 132.5056 132.5056 132.5056h544.3072c73.0624 0 132.5056-59.4432 132.5056-132.5056V241.92c0-73.0624-59.4432-132.5056-132.5056-132.5056z m-22.2208 597.8624c0 30.8736-25.088 55.9616-55.9616 55.9616H323.84c-30.8736 0-55.9616-25.088-55.9616-55.9616v-11.3152c0-101.7344 66.8672-188.1088 158.9248-217.6C404.1728 455.68 390.144 424.3968 390.144 389.888c0-69.0688 56.2176-125.2864 125.2864-125.2864s125.2864 56.2176 125.2864 125.2864c0 34.5088-14.0288 65.792-36.6592 88.4736 92.0576 29.4912 158.9248 115.8656 158.9248 217.6v11.3152z" fill="#6893DF" p-id="4229"></path></svg>