<svg t="1661769193688" class="icon" viewBox="0 0 1024 1024" version="1.1" xmlns="http://www.w3.org/2000/svg" p-id="3840" width="200" height="200">
	<path d="M757.8112 950.3232H271.5648c-107.264 0-194.2016-86.9376-194.2016-194.2016V269.824c0-107.264 86.9376-194.2016 194.2016-194.2016h486.2464c107.264 0 194.2016 86.9376 194.2016 194.2016v486.2464c0 107.264-86.9376 194.2528-194.2016 194.2528z" fill="#F78748" p-id="3841">
	</path>
	<path d="M790.2208 514.1504c-14.1312 0-25.6 11.4688-25.6 25.6v172.5952c0 46.1824-37.5808 83.7632-83.7632 83.7632h-322.048c-46.1824 0-83.7632-37.5808-83.7632-83.7632V382.3616c0-46.1824 37.5808-83.7632 83.7632-83.7632h7.8848c10.24 45.312 50.7392 79.2576 99.072 79.2576h108.0832c48.3328 0 88.832-33.9456 99.072-79.2576h7.8848c46.1824 0 83.7632 37.5808 83.7632 83.7632 0 14.1312 11.4688 25.6 25.6 25.6s25.6-11.4688 25.6-25.6c0-74.3936-60.5184-134.9632-134.9632-134.9632h-9.5744c-12.4416-42.0352-51.4048-72.8064-97.4336-72.8064h-108.032c-46.0288 0-84.9408 30.7712-97.4336 72.8064h-9.5744c-74.3936 0-134.9632 60.5184-134.9632 134.9632v330.0352c0 74.3936 60.5184 134.9632 134.9632 134.9632h322.048c74.3936 0 134.9632-60.5184 134.9632-134.9632v-172.5952a25.5488 25.5488 0 0 0-25.5488-25.6512zM465.7664 225.792h108.0832c27.8016 0 50.432 22.6304 50.432 50.432s-22.6304 50.432-50.432 50.432H465.7664c-27.8016 0-50.432-22.6304-50.432-50.432s22.6304-50.432 50.432-50.432z" fill="#F7F8F8" p-id="3842">
	</path>
	<path d="M615.2704 468.5824H424.3968c-14.1312 0-25.6 11.4688-25.6 25.6s11.4688 25.6 25.6 25.6h190.8736c14.1312 0 25.6-11.4688 25.6-25.6s-11.4688-25.6-25.6-25.6zM615.2704 613.2224H424.3968c-14.1312 0-25.6 11.4688-25.6 25.6s11.4688 25.6 25.6 25.6h190.8736c14.1312 0 25.6-11.4688 25.6-25.6s-11.4688-25.6-25.6-25.6z" fill="#F7F8F8" p-id="3843">
	</path>
</svg>
