<svg t="1661777480422" class="icon" viewBox="0 0 1024 1024" version="1.1" xmlns="http://www.w3.org/2000/svg" p-id="1228" width="200" height="200"><path d="M882.5 784.1l-132.3 48.1c-5.7 2.1-12.1-0.9-14.2-6.6L537.2 279.4c-9.4-25.8 4-54.7 29.9-64.1l50.9-18.5c25.8-9.4 54.7 4 64.1 29.9l201.8 554.4c0.4 1.2-0.2 2.6-1.4 3z" fill="#F7931E" p-id="1229"></path><path d="M669.4 314.5l-65.9 24c-1.6 0.6-3.3-0.2-3.8-1.8l-19.7-54c-0.6-1.6 0.2-3.3 1.8-3.8l65.9-24c1.6-0.6 3.3 0.2 3.8 1.8l19.7 54c0.5 1.6-0.3 3.3-1.8 3.8zM713.1 430.3l-68.8 25c-0.8 0.3-1.6-0.1-1.9-0.9l-5.5-15.1c-0.3-0.8 0.1-1.6 0.9-1.9l68.8-25c0.8-0.3 1.6 0.1 1.9 0.9l5.5 15.1c0.3 0.8-0.1 1.7-0.9 1.9zM732.7 484l-68.8 25c-0.8 0.3-1.6-0.1-1.9-0.9l-5.5-15.1c-0.3-0.8 0.1-1.6 0.9-1.9l68.8-25c0.8-0.3 1.6 0.1 1.9 0.9l5.5 15.1c0.2 0.8-0.2 1.6-0.9 1.9z" fill="#F7931E" p-id="1230"></path><path d="M447.2 829h-144c-1.1 0-1.9-0.9-1.9-1.9V236.7c0-27.5 22.5-50 50-50h54.2c27.5 0 50 22.5 50 50v584.2c-0.1 4.4-3.8 8.1-8.3 8.1z" fill="#FFECB6" p-id="1231"></path><path d="M294.6 829H156c-4.9 0-9-4-9-9V236.7c0-27.5 22.5-50 50-50h54.2c27.5 0 50 22.5 50 50v585.7c0 3.7-3 6.6-6.6 6.6z" fill="#F4BA64" p-id="1232"></path><path d="M883.3 857.6H140.7c-7 0-12.7-5.7-12.7-12.7 0-7 5.7-12.7 12.7-12.7h742.6c7 0 12.7 5.7 12.7 12.7 0 7-5.7 12.7-12.7 12.7z" fill="#F4F4F4" p-id="1233"></path><path d="M883.3 838.6H140.7c-5.3 0-9.5-4.3-9.5-9.5s4.3-9.5 9.5-9.5h742.6c5.3 0 9.5 4.3 9.5 9.5s-4.2 9.5-9.5 9.5z" fill="" p-id="1234"></path><path d="M328.6 838.6H182.9c-7.3 0-13.2-5.9-13.2-13.2v-56.6c0-5.3 4.3-9.5 9.5-9.5 5.3 0 9.5 4.3 9.5 9.5v50.8h135.1V218.4c0-12.2-10-22.2-22.2-22.2h-90.7c-12.2 0-22.2 10-22.2 22.2v398c0 5.3-4.3 9.5-9.5 9.5-5.3 0-9.5-4.3-9.5-9.5v-398c0-22.7 18.5-41.3 41.3-41.3h90.7c22.7 0 41.3 18.5 41.3 41.3v605.9c-0.2 7.8-6.6 14.3-14.4 14.3z" fill="" p-id="1235"></path><path d="M179.2 733.8c-5.3 0-9.5-4.3-9.5-9.5v-31.7c0-5.3 4.3-9.5 9.5-9.5 5.3 0 9.5 4.3 9.5 9.5v31.7c0 5.3-4.3 9.5-9.5 9.5z" fill="" p-id="1236"></path><path d="M276.2 314.9H240c-11 0-20-9-20-20v-23.5c0-11 9-20 20-20h36.2c11 0 20 9 20 20v23.5c0 11-9 20-20 20zM286.2 439.2H230c-5.5 0-10-4.5-10-10s4.5-10 10-10h56.2c5.5 0 10 4.5 10 10s-4.5 10-10 10zM286.2 496.3H230c-5.5 0-10-4.5-10-10s4.5-10 10-10h56.2c5.5 0 10 4.5 10 10s-4.5 10-10 10z" fill="#F7931E" p-id="1237"></path><path d="M482.7 838.6H337c-7.3 0-13.2-5.9-13.2-13.2v-607c0-22.7 18.5-41.3 41.3-41.3h90.7c22.7 0 41.3 18.5 41.3 41.3v605.9c-0.1 7.8-6.5 14.3-14.4 14.3z m-139.9-19.1H478V218.4c0-12.2-10-22.2-22.2-22.2h-90.7c-12.2 0-22.2 10-22.2 22.2v601.1z" fill="" p-id="1238"></path><path d="M428.5 314.9h-36.2c-11 0-20-9-20-20v-23.5c0-11 9-20 20-20h36.2c11 0 20 9 20 20v23.5c0 11-9 20-20 20zM438.5 439.2h-56.2c-5.5 0-10-4.5-10-10s4.5-10 10-10h56.2c5.5 0 10 4.5 10 10s-4.5 10-10 10zM438.5 496.3h-56.2c-5.5 0-10-4.5-10-10s4.5-10 10-10h56.2c5.5 0 10 4.5 10 10s-4.5 10-10 10z" fill="#FFDB69" p-id="1239"></path><path d="M710.3 831.8c-5.4 0-10.5-3.3-12.4-8.7L490.3 252.8c-3.8-10.3-3.3-21.5 1.4-31.5s12.9-17.6 23.2-21.3l85.2-31c10.3-3.8 21.5-3.3 31.5 1.4 10 4.7 17.6 12.9 21.3 23.2l207.2 569.3c1.3 3.6 1.1 7.5-0.5 10.9-1.6 3.5-4.5 6.1-8.1 7.4L714.8 831c-1.5 0.6-3 0.8-4.5 0.8z m-2-18.7z m-94.1-627.6c-2.5 0-5.1 0.4-7.5 1.3l-85.2 31c-5.5 2-10 6.1-12.5 11.5s-2.8 11.4-0.8 17l205.6 564.9 127-46.2-205.7-564.9c-2-5.5-6.1-10-11.5-12.5-3-1.4-6.2-2.1-9.4-2.1z m231 577.8z" fill="" p-id="1240"></path><path d="M621.7 307.7l-34 12.4c-10.3 3.8-21.9-1.6-25.6-12l-8-22.1c-3.8-10.3 1.6-21.9 12-25.6l34-12.4c10.3-3.8 21.9 1.6 25.6 12l8 22.1c3.7 10.3-1.7 21.8-12 25.6zM673.6 421l-52.8 19.2c-5.2 1.9-10.9-0.8-12.8-6-1.9-5.2 0.8-10.9 6-12.8l52.8-19.2c5.2-1.9 10.9 0.8 12.8 6 1.8 5.2-0.9 10.9-6 12.8zM693.1 474.7l-52.8 19.2c-5.2 1.9-10.9-0.8-12.8-6-1.9-5.2 0.8-10.9 6-12.8l52.8-19.2c5.2-1.9 10.9 0.8 12.8 6 1.9 5.1-0.8 10.9-6 12.8z" fill="#FFECB6" p-id="1241"></path></svg>